<svg width="32" height="32" viewBox="0 0 32 32" fill="none" xmlns="http://www.w3.org/2000/svg">
<path d="M17.8825 16L26.2825 7.61334C26.5336 7.36227 26.6746 7.02174 26.6746 6.66667C26.6746 6.3116 26.5336 5.97107 26.2825 5.72C26.0315 5.46893 25.6909 5.32788 25.3359 5.32788C24.9808 5.32788 24.6403 5.46893 24.3892 5.72L16.0025 14.12L7.61586 5.72C7.36478 5.46893 7.02426 5.32788 6.66919 5.32788C6.31412 5.32788 5.97359 5.46893 5.72252 5.72C5.47145 5.97107 5.3304 6.3116 5.3304 6.66667C5.3304 7.02174 5.47145 7.36227 5.72252 7.61334L14.1225 16L5.72252 24.3867C5.59755 24.5106 5.49836 24.6581 5.43067 24.8206C5.36298 24.983 5.32812 25.1573 5.32812 25.3333C5.32812 25.5094 5.36298 25.6836 5.43067 25.8461C5.49836 26.0086 5.59755 26.1561 5.72252 26.28C5.84647 26.405 5.99394 26.5042 6.15642 26.5719C6.3189 26.6396 6.49317 26.6744 6.66919 26.6744C6.84521 26.6744 7.01948 26.6396 7.18196 26.5719C7.34444 26.5042 7.49191 26.405 7.61586 26.28L16.0025 17.88L24.3892 26.28C24.5131 26.405 24.6606 26.5042 24.8231 26.5719C24.9856 26.6396 25.1598 26.6744 25.3359 26.6744C25.5119 26.6744 25.6861 26.6396 25.8486 26.5719C26.0111 26.5042 26.1586 26.405 26.2825 26.28C26.4075 26.1561 26.5067 26.0086 26.5744 25.8461C26.6421 25.6836 26.6769 25.5094 26.6769 25.3333C26.6769 25.1573 26.6421 24.983 26.5744 24.8206C26.5067 24.6581 26.4075 24.5106 26.2825 24.3867L17.8825 16Z" fill="#3041F3" stroke="#3041F3" stroke-width="0.5"/>
</svg>
