<svg width="38" height="38" viewBox="0 0 38 38" fill="none" xmlns="http://www.w3.org/2000/svg">
<path d="M17.0684 27.5029C17.0683 27.3563 17.0361 27.2114 16.9738 27.0786C16.9116 26.9458 16.8209 26.8284 16.7082 26.7345C16.5955 26.6407 16.4635 26.5728 16.3216 26.5356C16.1798 26.4985 16.0315 26.493 15.8872 26.5195C14.5781 26.7598 12.9253 26.7959 12.4858 25.5615C12.1027 24.6055 11.4679 23.7711 10.6489 23.1465C10.5905 23.1148 10.5348 23.0782 10.4824 23.0372C10.4108 22.8481 10.2835 22.6852 10.1173 22.5699C9.95115 22.4547 9.75397 22.3925 9.55177 22.3916H9.54689C9.28249 22.3916 9.02882 22.4962 8.8414 22.6827C8.65398 22.8692 8.54809 23.1224 8.54689 23.3868C8.54298 24.2022 9.35789 24.7247 9.68849 24.9014C10.0783 25.2931 10.3916 25.7541 10.6123 26.2608C10.9766 27.2842 12.0352 28.837 15.0781 28.6368C15.0791 28.6719 15.0801 28.7051 15.0806 28.7354L15.085 29.003C15.085 29.2682 15.1903 29.5226 15.3779 29.7101C15.5654 29.8976 15.8198 30.003 16.085 30.003C16.3502 30.003 16.6045 29.8976 16.7921 29.7101C16.9796 29.5226 17.085 29.2682 17.085 29.003L17.0801 28.6846C17.0752 28.4951 17.0684 28.2207 17.0684 27.5029ZM27.7354 12.3769C27.7671 12.2519 27.7984 12.1133 27.8257 11.957C27.9874 10.8426 27.8464 9.70521 27.4175 8.66402C27.3634 8.52828 27.2802 8.40603 27.1739 8.30582C27.0675 8.20562 26.9405 8.12989 26.8018 8.08395C26.4458 7.96383 25.1314 7.7275 22.6177 9.33395C20.5282 8.84224 18.3532 8.84224 16.2637 9.33395C13.7603 7.75103 12.4526 7.96583 12.1001 8.07911C11.958 8.12319 11.8275 8.19851 11.7183 8.29957C11.609 8.40062 11.5238 8.52483 11.4688 8.66311C11.0311 9.72429 10.8916 10.8849 11.0654 12.0195C11.0899 12.1475 11.1162 12.2656 11.1436 12.374C10.3151 13.4775 9.87388 14.8234 9.8882 16.2031C9.8855 16.511 9.89968 16.8187 9.93068 17.125C10.2647 21.7275 13.2647 23.1094 15.355 23.584C15.3115 23.709 15.272 23.8428 15.2368 23.9844C15.1742 24.2417 15.2161 24.5133 15.3534 24.7398C15.4908 24.9662 15.7123 25.1289 15.9694 25.1923C16.2265 25.2556 16.4983 25.2144 16.7251 25.0777C16.9519 24.941 17.1152 24.7199 17.1792 24.4629C17.2428 24.1297 17.4059 23.8236 17.647 23.585C17.7927 23.4574 17.8983 23.2902 17.9507 23.1037C18.0032 22.9172 18.0004 22.7195 17.9425 22.5346C17.8847 22.3497 17.7744 22.1856 17.625 22.0623C17.4756 21.9389 17.2936 21.8617 17.1011 21.8399C13.647 21.4453 12.1475 20.0381 11.9219 16.9414C11.8969 16.6962 11.8857 16.4497 11.8882 16.2031C11.8722 15.2198 12.197 14.2612 12.8076 13.4903C12.869 13.4099 12.9343 13.3326 13.0034 13.2588C13.1259 13.1218 13.2082 12.9537 13.2413 12.773C13.2745 12.5923 13.2572 12.4059 13.1914 12.2344C13.124 12.0539 13.072 11.868 13.0362 11.6787C12.9547 11.1404 12.9814 10.5913 13.1148 10.0635C13.9839 10.309 14.8019 10.7085 15.5298 11.2432C15.6501 11.3233 15.7863 11.3767 15.9291 11.3996C16.0719 11.4225 16.218 11.4145 16.3574 11.376C18.3785 10.8275 20.5093 10.8278 22.5302 11.377C22.6704 11.4154 22.8172 11.423 22.9606 11.3993C23.104 11.3755 23.2405 11.3209 23.3608 11.2393C24.0853 10.7024 24.8998 10.2993 25.7661 10.0489C25.8988 10.564 25.9285 11.1003 25.8535 11.627C25.8173 11.8345 25.7607 12.038 25.6845 12.2344C25.6187 12.406 25.6015 12.5923 25.6346 12.773C25.6678 12.9537 25.7501 13.1218 25.8725 13.2588C25.9497 13.3457 26.0268 13.4395 26.0962 13.5274C26.7025 14.2853 27.0218 15.2329 26.9981 16.2031C26.9999 16.4627 26.9873 16.7223 26.9605 16.9805C26.7402 20.0361 25.2349 21.4443 21.7647 21.8398C21.5721 21.8618 21.3901 21.9392 21.2407 22.0626C21.0914 22.1861 20.9811 22.3503 20.9233 22.5353C20.8655 22.7202 20.8627 22.918 20.9153 23.1046C20.9678 23.2911 21.0734 23.4583 21.2192 23.5859C21.4679 23.831 21.6313 24.1493 21.6856 24.4941C21.7531 24.7618 21.7842 25.0375 21.7778 25.3135V27.6475C21.7681 28.2949 21.7681 28.7803 21.7681 29.0029C21.7681 29.2682 21.8734 29.5225 22.061 29.71C22.2485 29.8976 22.5028 30.0029 22.7681 30.0029C23.0333 30.0029 23.2876 29.8976 23.4752 29.71C23.6627 29.5225 23.7681 29.2682 23.7681 29.0029C23.7681 28.7861 23.7681 28.3106 23.7778 27.6631V25.3135C23.7859 24.8713 23.7338 24.4301 23.623 24.002C23.5914 23.8614 23.5526 23.7226 23.5068 23.586C25.0281 23.3332 26.4103 22.5489 27.4074 21.3726C28.4046 20.1962 28.952 18.7042 28.9521 17.1621C28.9851 16.8436 29.0004 16.5234 28.9981 16.2031C29.0203 14.8219 28.5753 13.4737 27.7354 12.377L27.7354 12.3769Z" fill="#686A88"/>
</svg>
