<svg width="38" height="38" viewBox="0 0 38 38" fill="none" xmlns="http://www.w3.org/2000/svg">
<circle cx="19" cy="19" r="19" fill="#293AEC" fill-opacity="0.05"/>
<path d="M25 17.82C24.7348 17.82 24.4804 17.9254 24.2929 18.1129C24.1054 18.3004 24 18.5548 24 18.82V26C24 26.2652 23.8946 26.5196 23.7071 26.7071C23.5196 26.8946 23.2652 27 23 27H12C11.7348 27 11.4804 26.8946 11.2929 26.7071C11.1054 26.5196 11 26.2652 11 26V15C11 14.7348 11.1054 14.4804 11.2929 14.2929C11.4804 14.1054 11.7348 14 12 14H19.18C19.4452 14 19.6996 13.8946 19.8871 13.7071C20.0746 13.5196 20.18 13.2652 20.18 13C20.18 12.7348 20.0746 12.4804 19.8871 12.2929C19.6996 12.1054 19.4452 12 19.18 12H12C11.2044 12 10.4413 12.3161 9.87868 12.8787C9.31607 13.4413 9 14.2044 9 15V26C9 26.7956 9.31607 27.5587 9.87868 28.1213C10.4413 28.6839 11.2044 29 12 29H23C23.7956 29 24.5587 28.6839 25.1213 28.1213C25.6839 27.5587 26 26.7956 26 26V18.82C26 18.5548 25.8946 18.3004 25.7071 18.1129C25.5196 17.9254 25.2652 17.82 25 17.82ZM28.92 9.62C28.8185 9.37565 28.6243 9.18147 28.38 9.08C28.2598 9.02876 28.1307 9.00158 28 9H22C21.7348 9 21.4804 9.10536 21.2929 9.29289C21.1054 9.48043 21 9.73478 21 10C21 10.2652 21.1054 10.5196 21.2929 10.7071C21.4804 10.8946 21.7348 11 22 11H25.59L15.29 21.29C15.1963 21.383 15.1219 21.4936 15.0711 21.6154C15.0203 21.7373 14.9942 21.868 14.9942 22C14.9942 22.132 15.0203 22.2627 15.0711 22.3846C15.1219 22.5064 15.1963 22.617 15.29 22.71C15.383 22.8037 15.4936 22.8781 15.6154 22.9289C15.7373 22.9797 15.868 23.0058 16 23.0058C16.132 23.0058 16.2627 22.9797 16.3846 22.9289C16.5064 22.8781 16.617 22.8037 16.71 22.71L27 12.41V16C27 16.2652 27.1054 16.5196 27.2929 16.7071C27.4804 16.8946 27.7348 17 28 17C28.2652 17 28.5196 16.8946 28.7071 16.7071C28.8946 16.5196 29 16.2652 29 16V10C28.9984 9.86932 28.9712 9.74022 28.92 9.62V9.62Z" fill="#293AEC"/>
</svg>
