<svg width="38" height="38" viewBox="0 0 38 38" fill="none" xmlns="http://www.w3.org/2000/svg">
<path d="M24.4973 14.999C23.602 14.9986 22.7206 15.2201 21.9319 15.6436C21.8599 15.454 21.7319 15.2908 21.565 15.1757C21.3981 15.0605 21.2001 14.9989 20.9973 14.999H16.9973C16.8659 14.999 16.7359 15.0248 16.6145 15.075C16.4932 15.1252 16.3829 15.1989 16.29 15.2918C16.1971 15.3846 16.1235 15.4949 16.0733 15.6163C16.023 15.7376 15.9972 15.8677 15.9973 15.999V27.999C15.9972 28.1304 16.023 28.2604 16.0733 28.3818C16.1235 28.5032 16.1971 28.6134 16.29 28.7063C16.3829 28.7992 16.4932 28.8728 16.6145 28.9231C16.7359 28.9733 16.8659 28.9991 16.9973 28.999H20.9973C21.1286 28.9991 21.2587 28.9733 21.3801 28.9231C21.5014 28.8728 21.6117 28.7992 21.7046 28.7063C21.7974 28.6134 21.8711 28.5032 21.9213 28.3818C21.9715 28.2604 21.9974 28.1304 21.9973 27.999V22.499C21.9973 22.2338 22.1026 21.9795 22.2902 21.7919C22.4777 21.6044 22.7321 21.499 22.9973 21.499C23.2625 21.499 23.5169 21.6044 23.7044 21.7919C23.8919 21.9795 23.9973 22.2338 23.9973 22.499V27.999C23.9972 28.1304 24.023 28.2604 24.0733 28.3818C24.1235 28.5032 24.1971 28.6134 24.29 28.7063C24.3829 28.7992 24.4932 28.8728 24.6145 28.9231C24.7359 28.9733 24.8659 28.9991 24.9973 28.999H28.9973C29.1286 28.9991 29.2587 28.9733 29.3801 28.9231C29.5014 28.8728 29.6117 28.7992 29.7046 28.7063C29.7974 28.6134 29.8711 28.5032 29.9213 28.3818C29.9715 28.2604 29.9974 28.1304 29.9973 27.999V20.499C29.9955 19.0409 29.4154 17.643 28.3844 16.6119C27.3533 15.5809 25.9554 15.0008 24.4973 14.999V14.999ZM27.9973 26.999H25.9973V22.499C25.9973 21.7034 25.6812 20.9403 25.1186 20.3777C24.556 19.8151 23.7929 19.499 22.9973 19.499C22.2016 19.499 21.4386 19.8151 20.876 20.3777C20.3134 20.9403 19.9973 21.7034 19.9973 22.499V26.999H17.9973V16.999H19.9973V17.7022C19.9974 17.9094 20.0619 18.1114 20.1817 18.2804C20.3016 18.4494 20.471 18.577 20.6665 18.6456C20.862 18.7142 21.074 18.7204 21.2732 18.6634C21.4724 18.6063 21.649 18.4889 21.7785 18.3272C22.2273 17.7572 22.8429 17.3416 23.5393 17.1384C24.2357 16.9352 24.9781 16.9546 25.663 17.1937C26.3479 17.4329 26.941 17.88 27.3594 18.4726C27.7779 19.0651 28.0009 19.7736 27.9973 20.499V26.999ZM13.9973 14.999H9.99729C9.86594 14.999 9.73587 15.0248 9.61451 15.075C9.49315 15.1252 9.38288 15.1989 9.29001 15.2918C9.19714 15.3846 9.12348 15.4949 9.07325 15.6163C9.02302 15.7376 8.99721 15.8677 8.99729 15.999V27.999C8.99721 28.1304 9.02302 28.2604 9.07325 28.3818C9.12348 28.5032 9.19713 28.6134 9.29001 28.7063C9.38288 28.7992 9.49315 28.8728 9.61451 28.9231C9.73587 28.9733 9.86594 28.9991 9.99729 28.999H13.9973C14.1286 28.9991 14.2587 28.9733 14.3801 28.9231C14.5014 28.8728 14.6117 28.7992 14.7046 28.7063C14.7974 28.6134 14.8711 28.5032 14.9213 28.3818C14.9715 28.2604 14.9974 28.1304 14.9973 27.999V15.999C14.9974 15.8677 14.9715 15.7376 14.9213 15.6163C14.8711 15.4949 14.7974 15.3846 14.7046 15.2918C14.6117 15.1989 14.5014 15.1252 14.3801 15.075C14.2587 15.0248 14.1286 14.999 13.9973 14.999V14.999ZM12.9973 26.999H10.9973V16.999H12.9973V26.999ZM12.0119 7.54203C11.5743 7.51583 11.1359 7.57893 10.7234 7.72748C10.3109 7.87602 9.93296 8.10692 9.6125 8.40612C9.29205 8.70533 9.0358 9.06659 8.85934 9.46793C8.68289 9.86928 8.58991 10.3023 8.58606 10.7407C8.58222 11.1791 8.66758 11.6137 8.83697 12.0181C9.00636 12.4225 9.25623 12.7882 9.57138 13.093C9.88654 13.3978 10.2604 13.6352 10.6702 13.791C11.08 13.9468 11.5173 14.0175 11.9553 13.999H11.9836C12.4224 14.0251 12.8619 13.9614 13.2753 13.8119C13.6886 13.6624 14.0671 13.4301 14.3877 13.1293C14.7083 12.8286 14.9641 12.4656 15.1397 12.0626C15.3152 11.6596 15.4068 11.2251 15.4087 10.7855C15.4106 10.3459 15.3229 9.91058 15.1509 9.50606C14.9789 9.10154 14.7262 8.73634 14.4083 8.43278C14.0904 8.12921 13.7139 7.89366 13.3019 7.7405C12.8899 7.58735 12.4509 7.51982 12.0119 7.54203H12.0119ZM11.9836 11.999H11.9553C11.7824 12.02 11.6069 12.0038 11.4408 11.9515C11.2746 11.8991 11.1216 11.8118 10.9919 11.6955C10.8623 11.5792 10.759 11.4364 10.689 11.2769C10.619 11.1174 10.5839 10.9447 10.5862 10.7705C10.5862 10.0244 11.1457 9.54202 12.0119 9.54202C12.1866 9.51873 12.3643 9.53315 12.533 9.58431C12.7016 9.63546 12.8573 9.72216 12.9897 9.83857C13.122 9.95499 13.2278 10.0984 13.3001 10.2592C13.3723 10.4199 13.4092 10.5943 13.4084 10.7705C13.4084 11.5166 12.8488 11.999 11.9836 11.999Z" fill="#686A88"/>
</svg>
