<svg width="38" height="38" viewBox="0 0 38 38" fill="none" xmlns="http://www.w3.org/2000/svg">
<path d="M29.9924 10.9502C29.9925 10.7736 29.9458 10.6001 29.8571 10.4474C29.7683 10.2946 29.6407 10.1682 29.4871 10.0808C29.3336 9.9935 29.1597 9.94842 28.983 9.95017C28.8064 9.95193 28.6334 10.0005 28.4816 10.0908C27.8963 10.4392 27.2662 10.706 26.6086 10.8838C25.6696 10.0781 24.472 9.63713 23.2347 9.64164C21.8772 9.6432 20.5735 10.1722 19.5989 11.117C18.6242 12.0618 18.0548 13.3484 18.011 14.7051C15.335 14.2784 12.9097 12.8816 11.1975 10.7813C11.0943 10.6561 10.9626 10.5576 10.8133 10.494C10.6641 10.4304 10.5018 10.4037 10.34 10.416C10.1784 10.4293 10.0224 10.4818 9.88564 10.5689C9.74884 10.656 9.63532 10.7752 9.55489 10.916C9.14242 11.6358 8.90552 12.4428 8.86344 13.2713C8.82136 14.0999 8.97528 14.9267 9.3127 15.6846L9.31075 15.6865C9.1591 15.7799 9.03394 15.9107 8.94725 16.0663C8.86057 16.2218 8.81525 16.3971 8.81563 16.5752C8.81379 16.7221 8.82261 16.869 8.842 17.0146C8.94414 18.2729 9.50178 19.4507 10.4104 20.3271C10.3487 20.4446 10.3111 20.5731 10.2997 20.7052C10.2883 20.8373 10.3033 20.9704 10.3439 21.0967C10.7401 22.3308 11.5824 23.3727 12.7063 24.0185C11.5645 24.46 10.3317 24.614 9.11641 24.4668C8.89148 24.4386 8.66364 24.4876 8.47026 24.6059C8.27688 24.7242 8.12944 24.9047 8.05212 25.1178C7.97481 25.3309 7.97222 25.5639 8.04477 25.7787C8.11732 25.9935 8.26071 26.1772 8.45141 26.2998C10.5415 27.646 12.9751 28.3617 15.4612 28.3613C18.2804 28.393 21.0311 27.4921 23.2854 25.7988C25.5397 24.1054 27.1711 21.7145 27.926 18.998C28.2791 17.8146 28.4593 16.5865 28.4612 15.3516C28.4612 15.2861 28.4612 15.2188 28.4602 15.1514C28.9823 14.5883 29.3868 13.9267 29.6499 13.2053C29.913 12.4839 30.0294 11.7172 29.9924 10.9502V10.9502ZM26.6857 14.1621C26.5206 14.3575 26.437 14.6089 26.4523 14.8643C26.4621 15.0293 26.4611 15.1953 26.4611 15.3516C26.4591 16.3951 26.3061 17.4329 26.007 18.4326C25.3905 20.744 24.0162 22.7817 22.1041 24.2192C20.192 25.6568 17.8529 26.4111 15.4612 26.3613C14.6021 26.3616 13.7459 26.2606 12.9104 26.0606C13.9758 25.7172 14.972 25.1879 15.8528 24.4971C16.015 24.3693 16.1337 24.1945 16.1927 23.9967C16.2516 23.7988 16.2479 23.5875 16.182 23.3918C16.116 23.1962 15.9912 23.0257 15.8246 22.9038C15.6579 22.7819 15.4576 22.7145 15.2512 22.7109C14.42 22.698 13.6263 22.363 13.0373 21.7764C13.1867 21.7481 13.3352 21.7129 13.4826 21.6709C13.6986 21.6094 13.8877 21.477 14.0193 21.295C14.1509 21.1131 14.2174 20.8921 14.2082 20.6677C14.199 20.4433 14.1145 20.2285 13.9683 20.058C13.8222 19.8874 13.6229 19.7711 13.4025 19.7275C12.9201 19.6323 12.4661 19.427 12.0759 19.1277C11.6856 18.8284 11.3697 18.4432 11.1525 18.002C11.3333 18.0266 11.5152 18.0419 11.6975 18.0479C11.9141 18.0511 12.1261 17.9854 12.3028 17.8603C12.4796 17.7351 12.612 17.5569 12.6809 17.3516C12.7468 17.1443 12.7435 16.9212 12.6712 16.7161C12.5989 16.511 12.4618 16.335 12.2805 16.2148C11.8406 15.9218 11.4803 15.5243 11.2318 15.0578C10.9833 14.5913 10.8544 14.0705 10.8566 13.542C10.8566 13.4756 10.8586 13.4092 10.8625 13.3438C13.1038 15.434 16.0108 16.6662 19.0715 16.8233C19.226 16.8293 19.3799 16.8002 19.5215 16.7382C19.6631 16.6761 19.7887 16.5826 19.8889 16.4649C19.9881 16.346 20.0583 16.2057 20.0941 16.055C20.1298 15.9044 20.1301 15.7475 20.0949 15.5967C20.0377 15.3581 20.0085 15.1136 20.008 14.8682C20.0089 14.0127 20.3491 13.1925 20.954 12.5876C21.5589 11.9827 22.3791 11.6425 23.2346 11.6416C23.6747 11.6404 24.1103 11.7305 24.5139 11.9062C24.9174 12.0818 25.2802 12.3392 25.5793 12.6621C25.6946 12.7862 25.8398 12.8787 26.001 12.9309C26.1622 12.983 26.334 12.993 26.5002 12.96C26.911 12.8801 27.3159 12.7724 27.7121 12.6377C27.4418 13.1907 27.0964 13.7037 26.6857 14.1621V14.1621Z" fill="#686A88"/>
</svg>
